<svg width="70" height="71" viewBox="0 0 70 71" fill="none" xmlns="http://www.w3.org/2000/svg">
<g clip-path="url(#clip0)">
<path d="M69.6018 10.5952C69.4651 10.1771 69.1038 9.87142 68.6672 9.80763L64.5186 9.2042L62.6621 5.44476C62.2729 4.65253 60.9746 4.65253 60.5855 5.44476L58.7289 9.2042L54.5802 9.80777C54.1436 9.87142 53.7823 10.1761 53.6444 10.5954C53.5089 11.0146 53.6212 11.4756 53.9374 11.7826L56.9406 14.7093L56.2318 18.8417C56.1577 19.2761 56.3361 19.715 56.6917 19.9745C57.0519 20.2363 57.522 20.2686 57.9124 20.0625L61.6232 18.1109L65.3341 20.0625C65.5032 20.1516 65.6897 20.1956 65.8739 20.1956C66.1135 20.1956 66.3534 20.1215 66.5549 19.9744C66.9116 19.715 67.0899 19.2759 67.0148 18.8416L66.306 14.7092L69.3092 11.7824C69.6238 11.4743 69.7374 11.0145 69.6018 10.5952ZM64.2534 13.4768C63.9813 13.742 63.8562 14.1265 63.921 14.5018L64.3357 16.9212L62.163 15.7793C61.9939 15.6901 61.8086 15.6461 61.6232 15.6461C61.438 15.6461 61.2538 15.6901 61.0834 15.7793L58.9106 16.9212L59.3253 14.5018C59.3901 14.1265 59.265 13.7432 58.9929 13.4768L57.2336 11.7627L59.6635 11.4095C60.0411 11.355 60.3665 11.1176 60.5357 10.7759L61.622 8.57538L62.7083 10.7759C62.8775 11.1175 63.2029 11.355 63.5805 11.4095L66.0104 11.7627L64.2534 13.4768Z" fill="#2196F3"/>
<path d="M56.9185 45.3362H54.6021V47.6526H56.9185V45.3362Z" fill="#2196F3"/>
<path d="M56.9185 49.9691H54.6021V52.2855H56.9185V49.9691Z" fill="#2196F3"/>
<path d="M59.2351 47.6526H56.9187V49.969H59.2351V47.6526Z" fill="#2196F3"/>
<path d="M54.6023 47.6526H52.2859V49.969H54.6023V47.6526Z" fill="#2196F3"/>
<path d="M48.8113 58.0763H46.4949V60.3927H48.8113V58.0763Z" fill="#2196F3"/>
<path d="M48.8113 62.709H46.4949V65.0254H48.8113V62.709Z" fill="#2196F3"/>
<path d="M51.1279 60.3927H48.8115V62.7091H51.1279V60.3927Z" fill="#2196F3"/>
<path d="M46.4951 60.3927H44.1787V62.7091H46.4951V60.3927Z" fill="#2196F3"/>
<path d="M34.9131 53.4436H32.5967V55.76H34.9131V53.4436Z" fill="#2196F3"/>
<path d="M34.9131 58.0763H32.5967V60.3927H34.9131V58.0763Z" fill="#2196F3"/>
<path d="M37.2295 55.7599H34.9131V58.0763H37.2295V55.7599Z" fill="#2196F3"/>
<path d="M32.5969 55.7599H30.2805V58.0763H32.5969V55.7599Z" fill="#2196F3"/>
<path d="M12.9075 14.0652H10.5911V16.3816H12.9075V14.0652Z" fill="#2196F3"/>
<path d="M12.9075 18.698H10.5911V21.0144H12.9075V18.698Z" fill="#2196F3"/>
<path d="M15.2241 16.3816H12.9077V18.698H15.2241V16.3816Z" fill="#2196F3"/>
<path d="M10.5913 16.3816H8.2749V18.698H10.5913V16.3816Z" fill="#2196F3"/>
<path d="M53.8379 31.5191C53.2137 30.6771 52.2975 30.1351 51.2575 29.9891C50.2128 29.8409 49.182 30.1153 48.3481 30.7535L45.6298 32.837L45.6286 32.8382L41.5077 35.9155L38.5589 34.7411C43.817 32.3819 47.4921 27.1226 47.4921 21.0166C47.4921 12.7147 40.7108 5.96021 32.3754 5.96021C24.04 5.96021 17.2589 12.7147 17.2589 21.0166C17.2589 24.0256 18.1588 26.8237 19.6911 29.1783L13.6894 29.1261C13.6858 29.1261 13.6824 29.1261 13.6789 29.1261C13.6603 29.1261 13.6454 29.1354 13.628 29.1366C13.5133 29.1412 13.401 29.1644 13.291 29.2038C13.2632 29.2142 13.2343 29.2201 13.2077 29.2327C13.1938 29.2385 13.1799 29.2396 13.166 29.2465L6.1451 32.7129C6.14388 32.7129 6.14279 32.7129 6.14279 32.714L2.03114 34.6913C1.98595 34.7109 1.93967 34.7375 1.89447 34.7677C0.255591 35.8586 -0.302646 38.0013 0.595039 39.7524C1.07333 40.6837 1.88755 41.3693 2.88825 41.6831C3.27398 41.8035 3.66772 41.8627 4.05915 41.8627C4.68809 41.8627 5.31121 41.7086 5.88207 41.4041L8.8957 39.8012L13.8122 37.2624L16.7587 37.2451L4.94163 49.0054C4.94054 49.0066 4.93932 49.0066 4.9381 49.0077L2.03101 51.9031C1.34424 52.5865 0.966654 53.4932 0.966654 54.4604C0.966654 55.4264 1.34424 56.3354 2.03101 57.02C2.73637 57.7219 3.66405 58.0739 4.59173 58.0739C5.52063 58.0739 6.44709 57.7219 7.15476 57.02L10.0085 54.1778L13.7889 51.3553L15.7451 53.3034L11.9195 57.1126C11.9184 57.1138 11.9172 57.1138 11.916 57.1149L9.0089 60.0103C8.32213 60.6937 7.94454 61.6005 7.94454 62.5677C7.94454 63.5336 8.32213 64.4427 9.0089 65.1273C9.71426 65.8291 10.6432 66.1812 11.5708 66.1812C12.4985 66.1812 13.4274 65.8291 14.1339 65.1273L17.042 62.2319L21.6944 57.5992C21.6956 57.598 21.6956 57.5969 21.6967 57.5957L23.8892 55.4241L23.8811 55.4159C23.8949 55.4021 23.9146 55.3973 23.9286 55.3824L35.1468 43.0952L42.6843 44.1677C42.7387 44.1759 42.7931 44.1792 42.8476 44.1792C42.9878 44.1792 43.1232 44.1457 43.2541 44.0959C43.2923 44.0821 43.3259 44.0635 43.3618 44.045C43.4035 44.0241 43.4475 44.0126 43.487 43.986L50.465 39.3533C50.4905 39.3359 50.5043 39.3081 50.5286 39.2896C50.5565 39.2676 50.5912 39.2584 50.6166 39.234L53.3776 36.6477C54.8143 35.3016 55.0123 33.0965 53.8379 31.5191ZM4.7945 39.3599C4.41814 39.5615 3.99074 39.6019 3.58194 39.4723C3.17653 39.3461 2.84767 39.0692 2.65534 38.6951C2.30558 38.0141 2.50822 37.1848 3.12088 36.7366L5.97355 35.3642L6.66031 37.3713L6.94873 38.2144L4.7945 39.3599ZM12.3887 35.3909L9.02654 37.1282L8.47183 35.5067L8.07348 34.3415L12.4746 32.1687L12.3887 35.3909ZM45.1781 21.0143C45.1781 23.0086 44.7021 24.8896 43.8774 26.5723L34.7973 22.4481C34.7023 21.2031 34.0561 20.1132 33.0855 19.4344L36.2648 8.87992C41.428 10.5223 45.1781 15.3392 45.1781 21.0143ZM19.5777 21.0143C19.5777 13.9898 25.3199 8.27418 32.3779 8.27418C32.9269 8.27418 33.4642 8.32046 33.9959 8.38764L30.8861 18.7106C30.8445 18.7094 30.8051 18.6978 30.7622 18.6978C28.5199 18.6978 26.6958 20.5162 26.6958 22.7515C26.6958 24.9868 28.5199 26.8052 30.7622 26.8052C32.2701 26.8052 33.5731 25.9726 34.2761 24.754L42.6637 28.5645C40.3299 31.7055 36.5947 33.7544 32.3777 33.7544C25.3199 33.7544 19.5777 28.0387 19.5777 21.0143ZM32.5122 22.7515C32.5122 23.7094 31.7269 24.4888 30.7622 24.4888C29.7975 24.4888 29.0122 23.7094 29.0122 22.7515C29.0122 21.7937 29.7975 21.0143 30.7622 21.0143C31.7269 21.0143 32.5122 21.7937 32.5122 22.7515ZM5.52077 55.3776C5.00773 55.8861 4.17723 55.885 3.66541 55.3789C3.41866 55.1321 3.28321 54.8068 3.28321 54.4604C3.28321 54.1153 3.41866 53.7898 3.66541 53.5455L5.75462 51.4641L7.60306 53.3046L5.52077 55.3776ZM12.4999 63.485C11.9868 63.9935 11.1553 63.9947 10.6433 63.4862C10.3965 63.2395 10.2611 62.9142 10.2611 62.5678C10.2611 62.2226 10.3965 61.8972 10.6433 61.6529L12.7339 59.5705L13.6083 60.4403L14.5835 61.4109L12.4999 63.485ZM20.0606 55.9522C20.0593 55.9532 20.0583 55.9532 20.057 55.9545L16.2246 59.7765L15.3501 58.9066L14.3749 57.936L18.2039 54.1245C18.2039 54.1245 18.2039 54.1245 18.2039 54.1234C18.2051 54.1222 18.2062 54.1222 18.2074 54.1211C18.2942 54.0342 18.3487 53.93 18.402 53.827C18.4171 53.7968 18.446 53.7713 18.4587 53.7401C18.4947 53.6509 18.5004 53.5549 18.5144 53.4609C18.5213 53.4076 18.5445 53.3579 18.5445 53.3034C18.5445 53.2257 18.5167 53.1505 18.5005 53.074C18.4867 53.0045 18.4867 52.9338 18.46 52.8667C18.416 52.7579 18.3407 52.6618 18.2619 52.5679C18.24 52.5423 18.2318 52.5099 18.2075 52.4856C18.2075 52.4856 18.2075 52.4856 18.2063 52.4856C18.2051 52.4845 18.2051 52.4821 18.204 52.481L14.7144 49.0064C14.6773 48.9694 14.6298 48.9543 14.5881 48.9231C14.5268 48.8756 14.4678 48.8316 14.3993 48.798C14.3334 48.7655 14.2662 48.7458 14.1967 48.7273C14.1226 48.7063 14.0508 48.6902 13.9732 48.6844C13.9025 48.6797 13.8365 48.6867 13.7659 48.6948C13.6883 48.704 13.6154 48.7145 13.5401 48.7388C13.4671 48.762 13.4023 48.7978 13.3351 48.8361C13.2922 48.8604 13.2437 48.8685 13.2031 48.8987L9.35215 51.7733L7.39594 49.8253L12.6055 44.6436L22.0749 53.9566L20.0606 55.9522ZM34.868 40.715C34.8345 40.7104 34.8031 40.7231 34.7696 40.7208C34.6851 40.7162 34.604 40.7221 34.5195 40.7359C34.4535 40.7474 34.3909 40.7602 34.3284 40.7822C34.2543 40.8077 34.1871 40.8425 34.1187 40.8841C34.0538 40.9235 33.9948 40.9651 33.938 41.0173C33.9102 41.0416 33.8767 41.0532 33.8512 41.0809L23.6486 52.2551L14.2499 43.0116L20.4022 36.8918C20.8551 36.4401 20.8574 35.7069 20.4057 35.2529C20.1776 35.0247 19.8776 34.9124 19.5777 34.9136V34.9125L14.7596 34.9414L14.8198 31.4507L21.5605 31.5087C24.3077 34.3184 28.1389 36.0708 32.3779 36.0708C33.3275 36.0708 34.2541 35.9724 35.1563 35.8043C35.2432 35.8738 35.3288 35.9445 35.4378 35.9885L40.6705 38.0733L41.0017 39.7201L41.3885 41.6427L34.868 40.715ZM43.6436 41.1018L42.9637 37.7187L46.1047 35.3734L46.927 36.4644L48.1605 38.102L43.6436 41.1018ZM51.7948 34.9542L49.9753 36.659L47.9531 33.9744L49.7587 32.5904C50.0957 32.331 50.5208 32.2256 50.9377 32.28C51.357 32.339 51.7276 32.5579 51.9801 32.8973C52.4504 33.5308 52.3704 34.4145 51.7948 34.9542Z" fill="#212121"/>
<path d="M29.7061 41.0405L25.0525 36.4078C24.602 35.9573 23.8699 35.9573 23.4182 36.4078L18.7658 41.0405C18.5481 41.2594 18.4253 41.5535 18.4253 41.8616C18.4253 42.1697 18.5469 42.4651 18.7658 42.6828L23.4182 47.3155C23.6441 47.5401 23.9406 47.6525 24.2359 47.6525C24.5313 47.6525 24.8277 47.5401 25.0525 47.3155L29.7061 42.6828C29.9238 42.4651 30.0477 42.1697 30.0477 41.8616C30.0477 41.5535 29.9249 41.2582 29.7061 41.0405ZM24.2359 44.8602L21.2246 41.8616L24.2359 38.8631L27.2484 41.8616L24.2359 44.8602Z" fill="#212121"/>
<path d="M37.4413 11.7824L36.8818 14.0316C37.0359 14.0699 40.6553 15.0127 40.6553 18.698H42.9717C42.9715 14.3176 39.3546 12.2584 37.4413 11.7824Z" fill="#212121"/>
<path d="M42.9719 21.0143H40.6555V23.3307H42.9719V21.0143Z" fill="#212121"/>
</g>
<defs>
<clipPath id="clip0">
<rect width="69.4901" height="69.4901" fill="white" transform="translate(0.168213 0.770935)"/>
</clipPath>
</defs>
</svg>
