<svg width="70" height="71" viewBox="0 0 70 71" fill="none" xmlns="http://www.w3.org/2000/svg">
<g clip-path="url(#clip0)">
<path d="M68.1308 34.0456C68.1271 15.6906 53.2443 0.814161 34.8888 0.817872C16.5339 0.821583 1.65742 15.705 1.66113 34.0599C1.66431 48.5181 11.0138 61.3152 24.787 65.713C24.9185 65.7543 25.0553 65.7755 25.1926 65.775C25.4545 65.7745 25.7111 65.7045 25.9364 65.5714C26.2296 65.3981 26.4486 65.1224 26.5514 64.7974L34.9445 38.1957C37.2391 38.1841 39.0893 36.3142 39.0772 34.0201C39.0655 31.7256 37.1961 29.8753 34.9016 29.8869C34.2844 29.8896 33.6753 30.0317 33.1207 30.3026L22.0328 19.2131C21.4825 18.6819 20.6061 18.6972 20.0749 19.247C19.5564 19.7841 19.5564 20.6345 20.0749 21.1715L31.157 32.2663C30.3066 34.0021 30.7928 36.0973 32.3218 37.2806L24.3247 62.629C8.52044 56.8072 0.427964 39.2762 6.24973 23.4719C12.0715 7.66763 29.6025 -0.42484 45.4068 5.39693C61.2111 11.2187 69.3036 28.7503 63.4818 44.554C60.6375 52.2754 54.7934 58.5197 47.2772 61.8687L46.4131 57.7986C46.2551 57.0506 45.5197 56.5724 44.7717 56.7309C44.5358 56.7813 44.3168 56.8921 44.1365 57.0527L35.8044 64.4915C35.2329 64.9999 35.182 65.8752 35.691 66.4467C35.8564 66.6323 36.0685 66.7701 36.306 66.8459L46.9438 70.2411C47.6717 70.4749 48.4516 70.0747 48.6854 69.3462C48.7596 69.1161 48.7718 68.8712 48.722 68.6347L47.8726 64.641C60.173 59.4554 68.1595 47.3941 68.1308 34.0456V34.0456ZM34.8963 32.6608C35.6608 32.6608 36.2811 33.2811 36.2811 34.0456C36.2811 34.8106 35.6608 35.4304 34.8963 35.4304C34.1312 35.4304 33.5115 34.8106 33.5115 34.0456C33.5115 33.2811 34.1312 32.6608 34.8963 32.6608ZM39.4573 64.9389L44.2002 60.7082L45.5091 66.8762L39.4573 64.9389Z" fill="#212121"/>
<path d="M33.5112 7.73441V10.504C33.5112 11.269 34.131 11.8888 34.896 11.8888C35.6605 11.8888 36.2808 11.269 36.2808 10.504V7.73441C36.2808 6.9699 35.6605 6.34961 34.896 6.34961C34.131 6.34961 33.5112 6.9699 33.5112 7.73441Z" fill="#2196F3"/>
<path d="M8.58499 32.6608C7.81996 32.6608 7.2002 33.2811 7.2002 34.0456C7.2002 34.8106 7.81996 35.4304 8.58499 35.4304H11.3546C12.1196 35.4304 12.7394 34.8106 12.7394 34.0456C12.7394 33.2811 12.1196 32.6608 11.3546 32.6608H8.58499Z" fill="#2196F3"/>
<path d="M61.2069 35.4304C61.9719 35.4304 62.5917 34.8106 62.5917 34.0456C62.5917 33.2811 61.9719 32.6608 61.2069 32.6608H58.4373C57.6728 32.6608 57.0525 33.2811 57.0525 34.0456C57.0525 34.8106 57.6728 35.4304 58.4373 35.4304H61.2069Z" fill="#2196F3"/>
</g>
<defs>
<clipPath id="clip0">
<rect width="69.4901" height="69.4901" fill="white" transform="translate(0.168213 0.817871)"/>
</clipPath>
</defs>
</svg>
