<svg width="71" height="71" viewBox="0 0 71 71" fill="none" xmlns="http://www.w3.org/2000/svg">
<g clip-path="url(#clip0)">
<path d="M33.3772 33.2675H35.6923V43.6856H33.3772V33.2675Z" fill="#2196F3"/>
<path d="M42.6377 37.8978H44.9528V43.6856H42.6377V37.8978Z" fill="#2196F3"/>
<path d="M24.1167 41.3705H26.4318V43.6856H24.1167V41.3705Z" fill="#2196F3"/>
<path d="M17.1711 40.2129H19.4863V43.6856H17.1711V40.2129Z" fill="#2196F3"/>
<path d="M4.43826 62.2066H60.0012C61.919 62.2066 63.4739 60.6517 63.4739 58.7339V54.1037C63.4739 52.1859 61.919 50.631 60.0012 50.631H58.8437V21.7637L65.4188 15.535C66.9449 16.2873 68.792 15.8306 69.7907 14.4521C70.7901 13.0741 70.6499 11.1767 69.4595 9.96031C68.2692 8.74397 66.3757 8.56253 64.9757 9.53075C63.5762 10.4995 63.0788 12.3359 63.7978 13.8784L58.8437 18.5748V15.9041C58.8437 13.9863 57.2887 12.4314 55.371 12.4314H9.06851C7.15073 12.4314 5.59582 13.9863 5.59582 15.9041V50.631H4.43826C2.52048 50.631 0.965576 52.1859 0.965576 54.1037V58.7339C0.965576 60.6517 2.52048 62.2066 4.43826 62.2066ZM66.9466 11.2739C67.5858 11.2739 68.1041 11.7922 68.1041 12.4314C68.1041 13.0707 67.5858 13.589 66.9466 13.589C66.3073 13.589 65.789 13.0707 65.789 12.4314C65.789 11.7922 66.3073 11.2739 66.9466 11.2739ZM7.91095 15.9041C7.91095 15.2649 8.42925 14.7466 9.06851 14.7466H55.371C56.0102 14.7466 56.5285 15.2649 56.5285 15.9041V20.7655L54.2134 22.9654V18.2192C54.2134 17.58 53.6951 17.0617 53.0558 17.0617H11.3836C10.7444 17.0617 10.2261 17.58 10.2261 18.2192V47.1583C10.2261 47.7975 10.7444 48.3158 11.3836 48.3158H53.0558C53.6951 48.3158 54.2134 47.7975 54.2134 47.1583V26.1498L56.5285 23.9562V50.631H7.91095V15.9041ZM18.329 30.9524C16.7628 30.9479 15.3876 31.9913 14.9711 33.501C14.5545 35.0107 15.1994 36.6119 16.5463 37.4111C17.8927 38.2104 19.6081 38.0097 20.7334 36.9205L24.7572 38.9395C25.2246 39.1735 25.7915 39.0638 26.1391 38.6733L34.6926 29.0505L43.1007 35.3509C43.5517 35.6889 44.1814 35.6528 44.5906 35.2656L51.8983 28.3434V46.0007H12.5412V19.3768H51.8983V25.1539L43.7083 32.9098L35.2295 26.5534C34.7479 26.1927 34.0703 26.2606 33.6701 26.7099L24.9991 36.4661L21.7576 34.8451C21.7813 34.706 21.796 34.5658 21.8017 34.4251C21.8017 32.5073 20.2468 30.9524 18.329 30.9524ZM19.4866 34.4251C19.4866 35.0644 18.9683 35.5827 18.329 35.5827C17.6897 35.5827 17.1714 35.0644 17.1714 34.4251C17.1714 33.7859 17.6897 33.2675 18.329 33.2675C18.9683 33.2675 19.4866 33.7859 19.4866 34.4251ZM26.4319 52.9461H38.0075V54.1037C38.0075 54.7429 37.4892 55.2612 36.85 55.2612H27.5895C26.9502 55.2612 26.4319 54.7429 26.4319 54.1037V52.9461ZM3.2807 54.1037C3.2807 53.4644 3.799 52.9461 4.43826 52.9461H24.1168V54.1037C24.1168 56.0214 25.6717 57.5763 27.5895 57.5763H36.85C38.7678 57.5763 40.3227 56.0214 40.3227 54.1037V52.9461H60.0012C60.6405 52.9461 61.1588 53.4644 61.1588 54.1037V58.7339C61.1588 59.3732 60.6405 59.8915 60.0012 59.8915H4.43826C3.799 59.8915 3.2807 59.3732 3.2807 58.7339V54.1037Z" fill="#212121"/>
</g>
<defs>
<clipPath id="clip0">
<rect width="69.4901" height="69.4901" fill="white" transform="translate(0.965576 0.770935)"/>
</clipPath>
</defs>
</svg>
