<svg width="21" height="21" viewBox="0 0 21 21" fill="none" xmlns="http://www.w3.org/2000/svg">
<g clip-path="url(#clip0)">
<path d="M20.0995 6.21073C20.053 5.1558 19.8824 4.43054 19.6381 3.80209C19.386 3.13501 18.9981 2.53777 18.49 2.04129C17.9935 1.53708 17.3923 1.14528 16.7329 0.897117C16.1009 0.652738 15.3794 0.482142 14.3245 0.43563C13.2616 0.385178 12.9242 0.373512 10.2286 0.373512C7.53305 0.373512 7.19565 0.385178 6.13678 0.431691C5.08184 0.478203 4.35658 0.64895 3.72829 0.893178C3.06106 1.14528 2.46382 1.53314 1.96734 2.04129C1.46312 2.53777 1.07148 3.13895 0.823165 3.7983C0.578786 4.43054 0.40819 5.15186 0.361678 6.20679C0.311226 7.26961 0.299561 7.60701 0.299561 10.3026C0.299561 12.9982 0.311226 13.3356 0.357739 14.3945C0.404251 15.4494 0.574998 16.1747 0.819377 16.8031C1.07148 17.4702 1.46312 18.0674 1.96734 18.5639C2.46382 19.0681 3.065 19.4599 3.72435 19.7081C4.35658 19.9525 5.0779 20.1231 6.13299 20.1696C7.19171 20.2162 7.52926 20.2278 10.2249 20.2278C12.9204 20.2278 13.2579 20.2162 14.3167 20.1696C15.3717 20.1231 16.0969 19.9525 16.7252 19.7081C18.0595 19.1922 19.1145 18.1373 19.6303 16.8031C19.8746 16.1709 20.0453 15.4494 20.0918 14.3945C20.1383 13.3356 20.15 12.9982 20.15 10.3026C20.15 7.60701 20.1461 7.26961 20.0995 6.21073ZM18.3116 14.3169C18.2689 15.2865 18.106 15.8101 17.9703 16.1592C17.6367 17.0242 16.9502 17.7106 16.0853 18.0443C15.7362 18.18 15.2088 18.3429 14.2429 18.3854C13.1957 18.4321 12.8817 18.4436 10.2326 18.4436C7.5835 18.4436 7.26549 18.4321 6.22207 18.3854C5.25244 18.3429 4.72883 18.18 4.37976 18.0443C3.94933 17.8852 3.55754 17.6331 3.23953 17.3034C2.90985 16.9814 2.65775 16.5936 2.49867 16.1632C2.36292 15.8141 2.20005 15.2865 2.15748 14.3208C2.11081 13.2736 2.0993 12.9594 2.0993 10.3103C2.0993 7.66125 2.11081 7.34324 2.15748 6.29997C2.20005 5.33033 2.36292 4.80673 2.49867 4.45766C2.65775 4.02708 2.90985 3.63543 3.24347 3.31727C3.56527 2.9876 3.95312 2.73549 4.3837 2.57656C4.73277 2.44081 5.26031 2.27794 6.22601 2.23522C7.27322 2.1887 7.58744 2.17704 10.2364 2.17704C12.8894 2.17704 13.2035 2.1887 14.2469 2.23522C15.2165 2.27794 15.7401 2.44081 16.0892 2.57656C16.5196 2.73549 16.9114 2.9876 17.2294 3.31727C17.5591 3.63922 17.8112 4.02708 17.9703 4.45766C18.106 4.80673 18.2689 5.33412 18.3116 6.29997C18.3581 7.34718 18.3698 7.66125 18.3698 10.3103C18.3698 12.9594 18.3581 13.2697 18.3116 14.3169Z" fill="#AFB1B8"/>
<path d="M10.2282 5.20228C7.41249 5.20228 5.12793 7.48668 5.12793 10.3026C5.12793 13.1185 7.41249 15.4029 10.2282 15.4029C13.0441 15.4029 15.3285 13.1185 15.3285 10.3026C15.3285 7.48668 13.0441 5.20228 10.2282 5.20228ZM10.2282 13.611C8.40152 13.611 6.91979 12.1294 6.91979 10.3026C6.91979 8.47571 8.40152 6.99414 10.2282 6.99414C12.0551 6.99414 13.5367 8.47571 13.5367 10.3026C13.5367 12.1294 12.0551 13.611 10.2282 13.611V13.611Z" fill="#AFB1B8"/>
<path d="M16.7209 5.00067C16.7209 5.65821 16.1877 6.19136 15.53 6.19136C14.8725 6.19136 14.3394 5.65821 14.3394 5.00067C14.3394 4.34298 14.8725 3.80998 15.53 3.80998C16.1877 3.80998 16.7209 4.34298 16.7209 5.00067V5.00067Z" fill="#AFB1B8"/>
</g>
<defs>
<clipPath id="clip0">
<rect width="19.8543" height="19.8543" fill="white" transform="translate(0.264404 0.373512)"/>
</clipPath>
</defs>
</svg>
