<svg width="20" height="21" viewBox="0 0 20 21" fill="none" xmlns="http://www.w3.org/2000/svg">
<g clip-path="url(#clip0)">
<path d="M19.9337 20.2279V20.227H19.9386V12.9455C19.9386 9.38328 19.1717 6.63925 15.0073 6.63925C13.0053 6.63925 11.6618 7.73786 11.1134 8.77938H11.0555V6.97181H7.10693V20.227H11.2184V13.6635C11.2184 11.9354 11.546 10.2643 13.6862 10.2643C15.7949 10.2643 15.8263 12.2365 15.8263 13.7744V20.2279H19.9337Z" fill="#AFB1B8"/>
<path d="M0.411865 6.97256H4.52832V20.2278H0.411865V6.97256Z" fill="#AFB1B8"/>
<path d="M2.4684 0.37352C1.15222 0.37352 0.0842285 1.44152 0.0842285 2.75769C0.0842285 4.07387 1.15222 5.1642 2.4684 5.1642C3.78457 5.1642 4.85257 4.07387 4.85257 2.75769C4.85174 1.44152 3.78375 0.37352 2.4684 0.37352V0.37352Z" fill="#AFB1B8"/>
</g>
<defs>
<clipPath id="clip0">
<rect width="19.8543" height="19.8543" fill="white" transform="translate(0.0842285 0.37352)"/>
</clipPath>
</defs>
</svg>
