<svg width="66" height="71" viewBox="0 0 66 71" fill="none" xmlns="http://www.w3.org/2000/svg">
<path d="M64.7915 48.8042L46.4565 30.3349L48.4914 20.3122C49.0165 20.5171 49.5747 20.6243 50.1383 20.6283H50.1522C52.7413 20.6589 54.8649 18.5849 54.8956 15.9958C54.9263 13.4067 52.8522 11.2831 50.2631 11.2524C47.674 11.2218 45.5504 13.2958 45.5197 15.8849C45.5132 16.4389 45.6048 16.9897 45.7906 17.5117L35.0196 18.8262L17.4502 1.16532C17.2346 0.945414 16.9404 0.820332 16.6325 0.817871C16.3285 0.819464 16.0374 0.940492 15.8218 1.1549L12.5372 4.42093C12.0851 4.8732 12.0851 5.60632 12.5372 6.05858L14.3046 7.85142C7.45752 20.442 9.68149 36.0336 19.7758 46.2076C19.8684 46.2962 19.9759 46.3679 20.0931 46.4196C20.0202 46.8115 19.9821 47.2091 19.9796 47.6078V61.0426H6.08161C2.88507 61.0464 0.294536 63.6369 0.290771 66.8334V69.1498C0.290771 69.7894 0.809341 70.3079 1.44894 70.3079H54.7247C55.3643 70.3079 55.8828 69.7894 55.8828 69.1498V66.8334C55.8791 63.6369 53.2885 61.0464 50.092 61.0426H36.194V55.0885C38.3712 55.5451 40.5895 55.7779 42.8141 55.7834C48.1521 55.7776 53.4051 54.4468 58.1019 51.9104L59.8785 53.6975C60.0941 53.9174 60.3882 54.0425 60.6962 54.0449C61.0002 54.0434 61.2913 53.9223 61.5069 53.7079L64.7915 50.4419C65.2436 49.9896 65.2436 49.2565 64.7915 48.8042ZM48.5192 14.3534C49.4262 13.4512 50.8929 13.4552 51.7949 14.3622C52.6971 15.2692 52.6931 16.7359 51.7861 17.6379C51.3519 18.0698 50.7645 18.3121 50.1521 18.312H50.1451C48.8659 18.3053 47.8341 17.263 47.8408 15.9836C47.844 15.3713 48.0895 14.7852 48.5237 14.3534H48.5192V14.3534ZM45.7929 21.9637L44.4934 28.3603L41.9408 25.7926L45.7929 21.9637ZM44.4772 20.0052L40.3078 24.1503L37.0823 20.9074L44.4772 20.0052ZM50.092 63.3589C52.0109 63.3589 53.5665 64.9145 53.5665 66.8334V67.9916H2.60711V66.8334C2.60711 64.9145 4.16267 63.3589 6.08161 63.3589H50.092ZM33.8776 58.7263V61.0426H22.296V58.7263H33.8776ZM22.296 56.4099V47.6078C22.296 44.7981 24.8937 42.5119 28.0868 42.5119C31.2799 42.5119 33.8776 44.7981 33.8776 47.6078V56.4099H22.296ZM36.194 52.7269V47.6078C36.194 43.5207 32.5573 40.1956 28.0868 40.1956C25.1963 40.1513 22.4934 41.6226 20.9618 44.0743C12.1501 34.7934 10.1659 20.9575 16.0136 9.57434L56.4086 50.201C50.171 53.3741 43.0207 54.2675 36.194 52.7269ZM60.7089 51.2422L59.0771 49.6011L16.6209 6.88899L14.9821 5.2467L16.6209 3.61369L33.8522 20.9422C33.8603 20.9422 33.8649 20.9572 33.873 20.963L62.3524 49.6092L60.7089 51.2422Z" fill="#212121"/>
<path d="M28.0971 44.8283H28.0867C26.1677 44.8254 24.6098 46.3786 24.6069 48.2975C24.604 50.2165 26.1573 51.7744 28.0762 51.7773H28.0867C30.0056 51.7802 31.5635 50.2269 31.5664 48.308C31.5693 46.389 30.016 44.8311 28.0971 44.8283ZM28.9078 49.1239C28.6898 49.3408 28.3943 49.4621 28.0867 49.4609C27.4471 49.4576 26.9312 48.9364 26.9346 48.2968C26.9362 47.9906 27.0589 47.6976 27.2759 47.4816C27.4915 47.2672 27.7826 47.1462 28.0867 47.1446C28.7263 47.1479 29.2421 47.6691 29.2387 48.3087C29.2371 48.6149 29.1144 48.9079 28.8974 49.1239H28.9078Z" fill="#2196F3"/>
</svg>
