<svg width="21" height="21" viewBox="0 0 21 21" fill="none" xmlns="http://www.w3.org/2000/svg">
<g clip-path="url(#clip0)">
<path d="M20.7252 4.1446C19.9868 4.46847 19.2001 4.68315 18.3799 4.78738C19.2237 4.28358 19.8677 3.49189 20.1705 2.53764C19.3837 3.0067 18.5151 3.33802 17.5894 3.52291C16.8424 2.7275 15.7777 2.23486 14.6162 2.23486C12.3628 2.23486 10.5486 4.06394 10.5486 6.30624C10.5486 6.62887 10.5759 6.93909 10.6429 7.23443C7.25897 7.06939 4.26469 5.44754 2.25321 2.97692C1.90203 3.5862 1.69604 4.28358 1.69604 5.03432C1.69604 6.44398 2.42197 7.69356 3.50403 8.417C2.85008 8.40459 2.20853 8.21473 1.66502 7.91568C1.66502 7.92809 1.66502 7.94422 1.66502 7.96035C1.66502 9.93833 3.07592 11.5813 4.92609 11.9598C4.59477 12.0503 4.23367 12.0938 3.85892 12.0938C3.59833 12.0938 3.33527 12.0789 3.08833 12.0243C3.61571 13.6362 5.11223 14.8213 6.89167 14.8597C5.50683 15.943 3.74848 16.5957 1.84495 16.5957C1.51115 16.5957 1.191 16.5808 0.87085 16.5399C2.67387 17.7026 4.81069 18.3665 7.11503 18.3665C14.6051 18.3665 18.7 12.162 18.7 6.78398C18.7 6.60405 18.6938 6.43033 18.6851 6.25784C19.4929 5.68455 20.1717 4.96855 20.7252 4.1446Z" fill="#AFB1B8"/>
</g>
<defs>
<clipPath id="clip0">
<rect width="19.8543" height="19.8543" fill="white" transform="translate(0.87085 0.37352)"/>
</clipPath>
</defs>
</svg>
